<svg xmlns="http://www.w3.org/2000/svg" viewBox="0 0 96 96" role="img" aria-label="Aux Command">
  <defs>
    <linearGradient id="g" x1="8" y1="8" x2="88" y2="88" gradientUnits="userSpaceOnUse">
      <stop stop-color="#59e1ff"/>
      <stop offset="1" stop-color="#55f2b6"/>
    </linearGradient>
  </defs>
  <rect width="96" height="96" rx="22" fill="#07131d"/>
  <path d="M19 69 43 21h13l22 48H63l-5-12H36l-6 12H19Zm23-25h11l-5-13-6 13Z" fill="url(#g)"/>
  <path d="M72 24c-8-7-24-8-34 2l7 11c5-6 13-7 19-3l8-10Zm0 48-8-10c-6 4-14 3-19-3l-7 11c10 10 26 9 34 2Z" fill="#dcebf5" opacity=".9"/>
</svg>
